# xmcd CD database file
#
# Track frame offsets:
#	150
#	16313
#	34732
#	50317
#	70646
#	88871
#	106976
#	122834
#	132442
#	142063
#
# Disc length: 2049 seconds
#
# Revision: 0
# Processed by: cddbd v1.5PL3 Copyright (c) Steve Scherf et al.
# Submitted via: CDex 1.50beta9
#
DISCID=8907ff0a
DTITLE=柏木るざりん - 巫女みこナース マキシシングル 『M SINGLE.』
DYEAR=2003
DGENRE=Game
TTITLE0=Chu☆/巫女みこナース 愛のテーマ・ロングバージョン
TTITLE1=Chu☆/巫女みこナース 愛しき人に捧ぐカノン・ロングバージョン
TTITLE2=Chu☆/巫女みこナース 愛のテーマ・ReMix Ver.1
TTITLE3=BGM 下地和彦 Ver.
TTITLE4=Chu☆/巫女みこナース 愛のテーマ・ReMix Ver.2
TTITLE5=巫女みこナース・愛のテーマ ReMix Ver.Ebi
TTITLE6=巫女みこナース・愛のテーマ ReMix ピアノバージョン
TTITLE7=巫女みこナース・愛のテーマ カラオケバージョン
TTITLE8=Chu☆/巫女みこナース 愛のテーマ・ショートバージョン
TTITLE9=Chu☆/巫女みこナース 愛しき人に捧ぐカノン・ショートバージョン
EXTD=YEAR: 2003
EXTT0=
EXTT1=
EXTT2=
EXTT3=
EXTT4=
EXTT5=
EXTT6=
EXTT7=
EXTT8=
EXTT9=
PLAYORDER=
